<svg width="22" height="23" viewBox="0 0 22 23" fill="none" xmlns="http://www.w3.org/2000/svg">
<path id="avatar" fill-rule="evenodd" clip-rule="evenodd" d="M11 12C14.3137 12 17 9.31371 17 6C17 2.68629 14.3137 0 11 0C7.68629 0 5 2.68629 5 6C5 9.31371 7.68629 12 11 12ZM21.1627 18.8645C21.7155 20.0171 22 21.2524 22 22.5H11H0C0 21.2524 0.284523 20.0171 0.837325 18.8645C1.39013 17.7119 2.20038 16.6646 3.22182 15.7825C4.24327 14.9003 5.4559 14.2006 6.79048 13.7231C8.12506 13.2457 9.55546 13 11 13C12.4445 13 13.8749 13.2457 15.2095 13.7231C16.5441 14.2006 17.7567 14.9003 18.7782 15.7825C19.7996 16.6646 20.6099 17.7119 21.1627 18.8645Z" fill="#D9D9D9"/>
</svg>
