<svg width="36" height="37" viewBox="0 0 36 37" fill="none" xmlns="http://www.w3.org/2000/svg">
<g id="avatar" filter="url(#filter0_d_36_742)">
<path fill-rule="evenodd" clip-rule="evenodd" d="M18 19C21.3137 19 24 16.3137 24 13C24 9.68629 21.3137 7 18 7C14.6863 7 12 9.68629 12 13C12 16.3137 14.6863 19 18 19ZM28.1627 25.8645C28.7155 27.0171 29 28.2524 29 29.5H18H7C7 28.2524 7.28452 27.0171 7.83732 25.8645C8.39013 24.7119 9.20038 23.6646 10.2218 22.7825C11.2433 21.9003 12.4559 21.2006 13.7905 20.7231C15.1251 20.2457 16.5555 20 18 20C19.4445 20 20.8749 20.2457 22.2095 20.7231C23.5441 21.2006 24.7567 21.9003 25.7782 22.7825C26.7996 23.6646 27.6099 24.7119 28.1627 25.8645Z" fill="white"/>
</g>
<defs>
<filter id="filter0_d_36_742" x="0" y="0" width="36" height="36.5" filterUnits="userSpaceOnUse" color-interpolation-filters="sRGB">
<feFlood flood-opacity="0" result="BackgroundImageFix"/>
<feColorMatrix in="SourceAlpha" type="matrix" values="0 0 0 0 0 0 0 0 0 0 0 0 0 0 0 0 0 0 127 0" result="hardAlpha"/>
<feOffset/>
<feGaussianBlur stdDeviation="3.5"/>
<feComposite in2="hardAlpha" operator="out"/>
<feColorMatrix type="matrix" values="0 0 0 0 0.994833 0 0 0 0 1 0 0 0 0 0.741667 0 0 0 1 0"/>
<feBlend mode="normal" in2="BackgroundImageFix" result="effect1_dropShadow_36_742"/>
<feBlend mode="normal" in="SourceGraphic" in2="effect1_dropShadow_36_742" result="shape"/>
</filter>
</defs>
</svg>
